<?xml version="1.0" encoding="utf-8"?>
<!-- Generator: Adobe Illustrator 27.0.0, SVG Export Plug-In . SVG Version: 6.00 Build 0)  -->
<svg version="1.1" id="logo" xmlns="http://www.w3.org/2000/svg" xmlns:xlink="http://www.w3.org/1999/xlink" x="0px" y="0px"
	 viewBox="0 0 264.6 336.5" style="enable-background:new 0 0 264.6 336.5;" xml:space="preserve">
<style type="text/css">
	.st0{fill:#DB2D39;}
</style>
<path class="st0" d="M85.1,34.4c-2,4-15.2,24.3-19.3,41.6c-2,8.4,1.5,12.9,3.5,14.8c2.5,2.5,7.2,7.2,18.1,6.2s41.1-9.9,45.5-10.4
	s18.3-3.5,28.7,1.5c10.4,4.9,12.4,16.8,12.9,19.3s2,18.8-4,39.6s-7.4,25.2-6.4,26.2s4.4,0.5,4.4,0.5l57.4-17.8c0,0,3-0.5,5.9,2
	s25.7,24.7,25.7,24.7s1,1-1,2s-15.3,4.9-15.3,4.9l-35.6,10.9l-43.9,13.7l-8.1,2.6l-3,1.5c0,0-0.5-0.5-2,4.9s-4.9,17.3-4.9,17.3
	l-10.9,37.1l-13.9,49c0,0-1,3-3.5,0.5s-16.8-16.3-16.8-16.3l-0.5-0.5c0,0-1-1.5,0-4.5s2.5-8.9,2.5-8.9l8.4-26.2l11.9-39.6
	c0,0,0.5-3,0-3.5s-4.9,1-4.9,1l-13.9,4.5l-33.6,10.4l-27.2,8.4c0,0-1.5,0.5-2,0s-5.4-5-5.4-5L11.6,225c0,0-1.5-1,0-2
	s18.3-6.4,18.3-6.4l32.2-9.9l45-13.9l26.7-8.4c0,0,1.5-0.5,2-2s5.4-16.8,5.4-16.8l8.9-30.2c0,0,4-13.9,1-21.3s-9.9-7.4-20.3-5.4
	s-41.1,9.9-41.1,9.9s-15.8,3.3-27.2-0.5c-5.2-1.7-18.5-7.2-21-29.9S64,30.3,64,30.3L78.9,7c0,0,1-1.5,2.5-1l11.9,11.4
	c0,0,0.5,0.4,0,1.4S85.1,34.5,85.1,34.4"/>
</svg>
